<?xml version="1.0" encoding="UTF-8"?>
<svg width="852px" height="337px" viewBox="0 0 852 337" version="1.1" xmlns="http://www.w3.org/2000/svg" xmlns:xlink="http://www.w3.org/1999/xlink">
    <title>ioBuilders_dark</title>
    <g id="ioBuilders_dark" stroke="none" stroke-width="1" fill="none" fill-rule="evenodd">
        <g id="logo-IOB-(1)" transform="translate(78.000000, 47.000000)" fill="#2C3E50" fill-rule="nonzero">
            <g id="Group" transform="translate(0.000000, 162.700000)">
                <path d="M0,0 L11.2,0 L11.2,11.2 L0,11.2 L0,0 Z M0,79.9 L0,19.8 L11.2,19.8 L11.2,79.9 L0,79.9 Z" id="Shape"></path>
                <path d="M35,19.8 L69.2,19.8 C72.9,19.8 76.1,21.1 78.7,23.7 C81.3,26.3 82.6,29.5 82.6,33.2 L82.6,66.4 C82.6,70.1 81.3,73.3 78.7,75.9 C76.1,78.5 72.9,79.8 69.2,79.8 L35,79.8 C31.3,79.8 28.1,78.5 25.5,75.9 C22.9,73.3 21.6,70.1 21.6,66.4 L21.6,33.2 C21.6,29.5 22.9,26.3 25.5,23.7 C28.1,21.1 31.2,19.8 35,19.8 Z M69.2,30.9 L35,30.9 C34.4,30.9 33.8,31.1 33.4,31.6 C32.9,32.1 32.7,32.6 32.7,33.2 L32.7,66.4 C32.7,67 32.9,67.6 33.4,68 C33.8,68.5 34.4,68.7 35,68.7 L69.2,68.7 C69.8,68.7 70.4,68.5 70.8,68 C71.2,67.6 71.5,67 71.5,66.4 L71.5,33.2 C71.5,32.6 71.3,32 70.8,31.6 C70.3,31.2 69.8,30.9 69.2,30.9 Z" id="Shape"></path>
                <path d="M164.3,39.8 C167.3,42.4 168.8,45.7 168.8,49.8 L168.8,66.5 C168.8,70.2 167.5,73.4 164.9,76 C162.3,78.6 159.1,79.9 155.4,79.9 L94.2,79.9 L94.2,5.2 L152.3,5.2 C156,5.2 159.2,6.5 161.8,9.1 C164.4,11.7 165.7,14.9 165.7,18.6 L165.7,33.8 C165.6,35.9 165.2,37.8 164.3,39.8 Z M152.1,16.4 L107.6,16.4 C107,16.4 106.4,16.6 106,17.1 C105.5,17.6 105.3,18.1 105.3,18.7 L105.3,33.9 C105.3,34.5 105.5,35.1 106,35.5 C106.4,36 107,36.2 107.6,36.2 L152.2,36.2 C152.8,36.2 153.4,36 153.8,35.5 C154.2,35.1 154.5,34.5 154.5,33.9 L154.5,18.7 C154.5,18.1 154.3,17.5 153.8,17.1 C153.3,16.7 152.8,16.4 152.1,16.4 Z M157.5,66.4 L157.5,49.7 C157.5,49.1 157.3,48.5 156.8,48.1 C156.3,47.7 155.8,47.4 155.2,47.4 L107.6,47.4 C107,47.4 106.4,47.6 106,48.1 C105.5,48.6 105.3,49.1 105.3,49.7 L105.3,66.4 C105.3,67 105.5,67.6 106,68 C106.4,68.5 107,68.7 107.6,68.7 L155.3,68.7 C155.9,68.7 156.5,68.5 156.9,68 C157.3,67.6 157.5,67 157.5,66.4 Z" id="Shape"></path>
                <path d="M243.3,66.4 L243.3,5.2 L254.5,5.2 L254.5,66.4 C254.5,70.1 253.2,73.3 250.6,75.9 C248,78.5 244.8,79.8 241.1,79.8 L193.4,79.8 C189.7,79.8 186.5,78.5 183.9,75.9 C181.3,73.3 180,70.1 180,66.4 L180,5.2 L191.2,5.2 L191.2,66.4 C191.2,67 191.4,67.6 191.9,68 C192.3,68.5 192.9,68.7 193.5,68.7 L241.2,68.7 C241.8,68.7 242.4,68.5 242.8,68 C243.1,67.6 243.3,67 243.3,66.4 Z" id="Path"></path>
                <polygon id="Path" points="266 79.9 266 5.2 277.2 5.2 277.2 79.9"></polygon>
                <polygon id="Path" points="288.8 79.9 288.8 5.1 300 5.1 300 68.7 363.5 68.7 363.5 79.9"></polygon>
                <path d="M369.7,5.2 L430.9,5.2 C434.6,5.2 437.8,6.5 440.4,9.1 C443,11.7 444.3,14.9 444.3,18.6 L444.3,66.3 C444.3,70 443,73.2 440.4,75.8 C437.8,78.4 434.6,79.7 430.9,79.7 L369.7,79.7 L369.7,5.2 L369.7,5.2 Z M433.1,66.4 L433.1,18.7 C433.1,18.1 432.9,17.5 432.4,17.1 C431.9,16.7 431.4,16.4 430.8,16.4 L383.1,16.4 C382.5,16.4 381.9,16.6 381.5,17.1 C381,17.6 380.8,18.1 380.8,18.7 L380.8,66.4 C380.8,67 381,67.6 381.5,68 C381.9,68.5 382.5,68.7 383.1,68.7 L430.8,68.7 C431.4,68.7 432,68.5 432.4,68 C432.9,67.6 433.1,67 433.1,66.4 Z" id="Shape"></path>
                <polygon id="Path" points="524.6 5.2 524.6 16.4 467.4 16.4 467.4 36.9 513.4 36.9 513.4 48.1 467.4 48.1 467.4 68.6 524.6 68.6 524.6 79.8 456.2 79.8 456.2 5.1 524.6 5.1"></polygon>
                <path d="M609.9,18.8 L609.9,39.8 C609.9,43.5 608.6,46.6 606,49.3 C603.4,52 600.2,53.3 596.5,53.3 L588.9,53.3 L609.9,78.4 L609.9,80 L596.6,80 L574.2,53.4 L548.7,53.4 C548.1,53.4 547.4,53.3 546.4,53.2 L546.4,80.1 L535.2,80.1 L535.2,5.5 L596.4,5.5 C600.1,5.5 603.3,6.8 605.9,9.5 C608.6,12 609.9,15.2 609.9,18.8 Z M548.8,42 L596.5,42 C597.1,42 597.7,41.8 598.1,41.3 C598.5,40.9 598.8,40.3 598.8,39.7 L598.8,18.8 C598.8,18.2 598.6,17.6 598.1,17.2 C597.6,16.8 597.1,16.5 596.5,16.5 L548.8,16.5 C548.2,16.5 547.6,16.7 547.2,17.2 C546.7,17.7 546.5,18.2 546.5,18.8 L546.5,39.8 C546.5,40.4 546.7,41 547.2,41.4 C547.6,41.8 548.1,42 548.8,42 Z" id="Shape"></path>
                <path d="M695.1,18.7 L695.1,23.1 L683.9,23.1 L683.9,18.7 C683.9,18.1 683.7,17.5 683.2,17.1 C682.7,16.7 682.2,16.4 681.6,16.4 L633.9,16.4 C633.3,16.4 632.7,16.6 632.3,17.1 C631.8,17.6 631.6,18.1 631.6,18.7 L631.6,34.7 C631.6,35.3 631.8,35.9 632.3,36.3 C632.7,36.8 633.3,37 633.9,37 L681.6,37 C685.3,37 688.5,38.3 691.1,40.9 C693.7,43.5 695,46.7 695,50.4 L695,66.4 C695,70.1 693.7,73.3 691.1,75.9 C688.5,78.5 685.3,79.8 681.6,79.8 L633.9,79.8 C630.2,79.8 627,78.5 624.4,75.9 C621.8,73.3 620.5,70.1 620.5,66.4 L620.5,62 L631.6,62 L631.6,66.4 C631.6,67 631.8,67.6 632.3,68 C632.7,68.5 633.3,68.7 633.9,68.7 L681.6,68.7 C682.2,68.7 682.8,68.5 683.2,68 C683.7,67.6 683.9,67 683.9,66.4 L683.9,50.4 C683.9,49.8 683.7,49.2 683.2,48.8 C682.7,48.4 682.2,48.1 681.6,48.1 L633.9,48.1 C630.2,48.1 627,46.8 624.4,44.2 C621.8,41.6 620.5,38.4 620.5,34.7 L620.5,18.7 C620.5,15 621.8,11.8 624.4,9.2 C627,6.6 630.2,5.3 633.9,5.3 L681.6,5.3 C685.3,5.3 688.5,6.6 691.1,9.2 C693.7,11.8 695.1,15 695.1,18.7 Z" id="Path"></path>
            </g>
            <path d="M437.3,130.6 L315.2,130.6 C312.9,130.6 310.9,128.7 310.9,126.3 L310.9,4.3 C310.9,2 312.8,0 315.2,0 L437.3,0 C439.6,0 441.6,1.9 441.6,4.3 L441.6,126.4 C441.6,128.7 439.7,130.6 437.3,130.6 Z" id="Path"></path>
            <path d="M288.1,130.6 L259.2,130.6 C256.9,130.6 254.9,128.7 254.9,126.3 L254.9,4.3 C254.9,2 256.8,0 259.2,0 L288.1,0 C290.4,0 292.4,1.9 292.4,4.3 L292.4,126.4 C292.3,128.7 290.4,130.6 288.1,130.6 Z M283,24.3 L283,13.1 C283,11 281.3,9.4 279.3,9.4 L268.1,9.4 C266,9.4 264.4,11.1 264.4,13.1 L264.4,24.3 C264.4,26.4 266.1,28 268.1,28 L279.3,28 C281.3,28 283,26.3 283,24.3 Z" id="Shape"></path>
        </g>
    </g>
</svg>